<?xml version="1.0" encoding="UTF-8"?>
<svg xmlns="http://www.w3.org/2000/svg" xmlns:xlink="http://www.w3.org/1999/xlink" width="1987pt" height="579pt" viewBox="0 0 1987 579" version="1.1">
<g id="surface3762">
<path style="fill:none;stroke-width:2;stroke-linecap:butt;stroke-linejoin:round;stroke:rgb(0%,0%,0%);stroke-opacity:0.1;stroke-miterlimit:10;" d="M 2432 3136 L 2432 3712 L 448 3712 L 448 3136 Z M 2432 3136 " transform="matrix(1,0,0,-1,-447,3713)"/>
<path style="fill-rule:evenodd;fill:rgb(100%,100%,87.8%);fill-opacity:1;stroke-width:2;stroke-linecap:butt;stroke-linejoin:miter;stroke:rgb(0%,0%,0%);stroke-opacity:0.75;stroke-miterlimit:10;" d="M 1216 3568 L 1024 3376 L 1792 3376 L 1920 3568 Z M 1216 3568 " transform="matrix(1,0,0,-1,-447,3713)"/>
<path style="fill-rule:evenodd;fill:rgb(100%,100%,100%);fill-opacity:1;stroke-width:2;stroke-linecap:butt;stroke-linejoin:miter;stroke:rgb(0%,0%,0%);stroke-opacity:0.75;stroke-miterlimit:10;" d="M 1504 3448 L 1648 3448 L 1696 3512 L 1568 3512 Z M 1504 3448 " transform="matrix(1,0,0,-1,-447,3713)"/>
<path style="fill-rule:evenodd;fill:rgb(100%,100%,87.8%);fill-opacity:0.75;stroke-width:2;stroke-linecap:butt;stroke-linejoin:miter;stroke:rgb(0%,0%,0%);stroke-opacity:1;stroke-miterlimit:10;" d="M 1696 3512 L 1693.234375 3508.3125 L 1576 3508 L 1575.632812 3512 Z M 1696 3512 " transform="matrix(1,0,0,-1,-447,3713)"/>
<path style="fill-rule:evenodd;fill:rgb(0%,100%,0%);fill-opacity:1;stroke-width:5;stroke-linecap:butt;stroke-linejoin:miter;stroke:rgb(0%,0%,0%);stroke-opacity:1;stroke-miterlimit:10;" d="M 1312.089844 3517.648438 L 1272 3472 L 1392 3472 L 1380.449219 3508.980469 Z M 1312.089844 3517.648438 " transform="matrix(1,0,0,-1,-447,3713)"/>
<path style=" stroke:none;fill-rule:evenodd;fill:rgb(0%,0%,54.5%);fill-opacity:0.75;" d="M 1018.894531 478.191406 L 1007.835938 468.699219 L 1036.347656 456.296875 L 1035.332031 470.914062 L 1018.894531 478.191406 "/>
<path style="fill-rule:evenodd;fill:rgb(0%,0%,0%);fill-opacity:1;stroke-width:2;stroke-linecap:butt;stroke-linejoin:miter;stroke:rgb(0%,0%,0%);stroke-opacity:1;stroke-miterlimit:10;" d="M 1488 3320 L 1480 3312 L 1488 3304 L 1496.359375 3313.941406 L 1488 3320 " transform="matrix(1,0,0,-1,-447,3713)"/>
<path style="fill-rule:evenodd;fill:rgb(0%,100%,0%);fill-opacity:1;stroke-width:5;stroke-linecap:butt;stroke-linejoin:miter;stroke:rgb(0%,0%,0%);stroke-opacity:1;stroke-miterlimit:10;" d="M 1576.539062 3418.960938 L 1500.921875 3343.699219 L 1519.109375 3322.738281 L 1615.238281 3405.460938 L 1576.539062 3418.960938 " transform="matrix(1,0,0,-1,-447,3713)"/>
<path style="fill-rule:evenodd;fill:rgb(0%,100%,0%);fill-opacity:1;stroke-width:5;stroke-linecap:butt;stroke-linejoin:miter;stroke:rgb(0%,0%,0%);stroke-opacity:1;stroke-miterlimit:10;" d="M 1495.328125 3669.910156 L 1609.089844 3446.210938 L 1576.539062 3418.960938 L 1451.089844 3623.769531 L 1495.328125 3669.910156 " transform="matrix(1,0,0,-1,-447,3713)"/>
<path style="fill-rule:evenodd;fill:rgb(0%,100%,0%);fill-opacity:1;stroke-width:5;stroke-linecap:butt;stroke-linejoin:miter;stroke:rgb(0%,0%,0%);stroke-opacity:1;stroke-miterlimit:10;" d="M 1328.878906 3548.199219 L 1445.03125 3665.21875 L 1498.378906 3629.890625 L 1369.078125 3500.128906 L 1328.878906 3548.199219 " transform="matrix(1,0,0,-1,-447,3713)"/>
<path style="fill-rule:evenodd;fill:rgb(0%,100%,0%);fill-opacity:1;stroke-width:5;stroke-linecap:butt;stroke-linejoin:miter;stroke:rgb(0%,0%,0%);stroke-opacity:1;stroke-miterlimit:10;" d="M 1376 3520 C 1376 3537.671875 1361.671875 3552 1344 3552 C 1326.328125 3552 1312 3537.671875 1312 3520 C 1312 3502.328125 1326.328125 3488 1344 3488 C 1361.671875 3488 1376 3502.328125 1376 3520 Z M 1376 3520 " transform="matrix(1,0,0,-1,-447,3713)"/>
<path style="fill-rule:evenodd;fill:rgb(0%,100%,0%);fill-opacity:1;stroke-width:5;stroke-linecap:butt;stroke-linejoin:miter;stroke:rgb(0%,0%,0%);stroke-opacity:1;stroke-miterlimit:10;" d="M 1504 3648 C 1504 3665.671875 1489.671875 3680 1472 3680 C 1454.328125 3680 1440 3665.671875 1440 3648 C 1440 3630.328125 1454.328125 3616 1472 3616 C 1489.671875 3616 1504 3630.328125 1504 3648 Z M 1504 3648 " transform="matrix(1,0,0,-1,-447,3713)"/>
<path style="fill-rule:evenodd;fill:rgb(100%,100%,100%);fill-opacity:1;stroke-width:5;stroke-linecap:butt;stroke-linejoin:miter;stroke:rgb(0%,0%,0%);stroke-opacity:1;stroke-miterlimit:10;" d="M 1624 3424 C 1624 3437.253906 1613.253906 3448 1600 3448 C 1586.746094 3448 1576 3437.253906 1576 3424 C 1576 3410.746094 1586.746094 3400 1600 3400 C 1613.253906 3400 1624 3410.746094 1624 3424 Z M 1624 3424 " transform="matrix(1,0,0,-1,-447,3713)"/>
<path style="fill-rule:evenodd;fill:rgb(100%,100%,100%);fill-opacity:1;stroke-width:5;stroke-linecap:butt;stroke-linejoin:miter;stroke:rgb(0%,0%,0%);stroke-opacity:1;stroke-miterlimit:10;" d="M 1520 3328 C 1520 3336.835938 1512.835938 3344 1504 3344 C 1495.164062 3344 1488 3336.835938 1488 3328 C 1488 3319.164062 1495.164062 3312 1504 3312 C 1512.835938 3312 1520 3319.164062 1520 3328 Z M 1520 3328 " transform="matrix(1,0,0,-1,-447,3713)"/>
<path style="fill-rule:evenodd;fill:rgb(0%,0%,0%);fill-opacity:1;stroke-width:2;stroke-linecap:butt;stroke-linejoin:miter;stroke:rgb(0%,0%,0%);stroke-opacity:1;stroke-miterlimit:10;" d="M 1480 3312.453125 L 1456 3320.453125 L 1448 3288.453125 L 1448 3336.453125 L 1483.378906 3315.832031 " transform="matrix(1,0,0,-1,-447,3713)"/>
<path style="fill-rule:evenodd;fill:rgb(0%,0%,0%);fill-opacity:1;stroke-width:2;stroke-linecap:butt;stroke-linejoin:miter;stroke:rgb(0%,0%,0%);stroke-opacity:1;stroke-miterlimit:10;" d="M 1488 3304 L 1496 3280 L 1456 3280 L 1512 3272 L 1491.75 3308.460938 " transform="matrix(1,0,0,-1,-447,3713)"/>
<path style=" stroke:none;fill-rule:evenodd;fill:rgb(100%,54.9%,0%);fill-opacity:0.75;" d="M 1092.835938 498.941406 C 1081.738281 473.4375 1052.066406 461.753906 1026.5625 472.851562 C 1001.058594 483.949219 989.375 513.621094 1000.472656 539.125 C 1011.570312 564.628906 1041.242188 576.3125 1066.746094 565.214844 C 1092.25 554.117188 1103.933594 524.445312 1092.835938 498.941406 Z M 1092.835938 498.941406 "/>
<path style=" stroke:none;fill-rule:evenodd;fill:rgb(100%,100%,100%);fill-opacity:1;" d="M 1081.09375 529.5625 L 1075.949219 526.164062 L 1077.257812 538.523438 L 1081.09375 529.5625 "/>
<path style="fill:none;stroke-width:0.8;stroke-linecap:butt;stroke-linejoin:miter;stroke:rgb(0%,0%,0%);stroke-opacity:1;stroke-miterlimit:10;" d="M 1471.382812 3246.800781 C 1470.527344 3260.308594 1464.824219 3260.222656 1462.148438 3264.085938 C 1459.46875 3267.945312 1459.824219 3275.757812 1460.476562 3279.390625 C 1461.128906 3283.023438 1462.078125 3282.476562 1462.917969 3280.265625 C 1463.757812 3278.058594 1464.488281 3274.191406 1460.347656 3268.320312 " transform="matrix(1,0,0,-1,-447,3713)"/>
<path style=" stroke:none;fill-rule:evenodd;fill:rgb(0%,0%,0%);fill-opacity:1;" d="M 1026.308594 466.25 C 1026.308594 463.847656 1022.710938 463.847656 1022.710938 466.25 C 1022.710938 468.648438 1026.308594 468.648438 1026.308594 466.25 Z M 1026.308594 466.25 "/>
<path style="fill:none;stroke-width:2;stroke-linecap:butt;stroke-linejoin:miter;stroke:rgb(0%,0%,0%);stroke-opacity:1;stroke-miterlimit:10;" d="M 1534.414062 3296.28125 L 1572.433594 3299.039062 " transform="matrix(1,0,0,-1,-447,3713)"/>
<path style="fill:none;stroke-width:2;stroke-linecap:butt;stroke-linejoin:miter;stroke:rgb(0%,0%,0%);stroke-opacity:1;stroke-miterlimit:10;" d="M 1539.9375 3286.160156 L 1561.179688 3287.449219 " transform="matrix(1,0,0,-1,-447,3713)"/>
<path style="fill:none;stroke-width:2;stroke-linecap:butt;stroke-linejoin:miter;stroke:rgb(0%,0%,0%);stroke-opacity:1;stroke-miterlimit:10;" d="M 1535.757812 3272.96875 L 1583.058594 3272.96875 " transform="matrix(1,0,0,-1,-447,3713)"/>
<path style=" stroke:none;fill-rule:evenodd;fill:rgb(100%,100%,87.8%);fill-opacity:0.75;" d="M 1057 265 L 1201 265 L 1201 337 L 1057 337 Z M 1057 265 "/>
<path style="fill:none;stroke-width:2;stroke-linecap:butt;stroke-linejoin:miter;stroke:rgb(0%,0%,0%);stroke-opacity:0.75;stroke-miterlimit:10;" d="M 1488 3376 L 1664 3376 " transform="matrix(1,0,0,-1,-447,3713)"/>
<path style="fill-rule:evenodd;fill:rgb(100%,100%,87.8%);fill-opacity:1;stroke-width:2;stroke-linecap:square;stroke-linejoin:round;stroke:rgb(0%,0%,0%);stroke-opacity:0.75;stroke-miterlimit:10;" d="M 1024 3376 L 1792 3376 L 1792 3368 L 1024 3368 Z M 1024 3376 " transform="matrix(1,0,0,-1,-447,3713)"/>
<path style="fill-rule:evenodd;fill:rgb(100%,100%,87.8%);fill-opacity:1;stroke-width:2;stroke-linecap:square;stroke-linejoin:round;stroke:rgb(0%,0%,0%);stroke-opacity:0.75;stroke-miterlimit:10;" d="M 1792 3368 L 1920 3560 L 1920 3568 L 1792 3376 Z M 1792 3368 " transform="matrix(1,0,0,-1,-447,3713)"/>
<path style="fill-rule:evenodd;fill:rgb(100%,100%,87.8%);fill-opacity:0.75;stroke-width:2;stroke-linecap:butt;stroke-linejoin:miter;stroke:rgb(0%,0%,0%);stroke-opacity:1;stroke-miterlimit:10;" d="M 1504 3448 L 1510.394531 3448 L 1540.238281 3478.226562 L 1537.953125 3481.953125 Z M 1504 3448 " transform="matrix(1,0,0,-1,-447,3713)"/>
<path style="fill:none;stroke-width:2;stroke-linecap:butt;stroke-linejoin:miter;stroke:rgb(0%,0%,0%);stroke-opacity:1;stroke-miterlimit:10;" d="M 1504 3448 L 1648 3448 " transform="matrix(1,0,0,-1,-447,3713)"/>
</g>
</svg>
